:FULLY-SPECIFIED
:FORCE-ALL-JOINTS-BE-3DOF
:DEGREES
815
root 2.25905 16.527 23.942 5.70901 -7.00826 -5.72744
lfemur -36.601 4.67316 0.0240252
ltibia 25.2212 -0 0
lfoot -11.4078 20.1337 -0.00332331
ltoes 19.9977 -0 0
rfemur 5.39927 2.12909 24.4158
rtibia 15.7123 -0 0
rfoot -26.0564 -19.9549 -1.5118
rtoes -32.6666 0 0
lowerback 0.00655501 6.30403 4.64464
upperback -0.315991 8.41633 -0.883883
thorax 0.507986 4.2272 -3.33715
lowerneck -5.15436 -2.08707 2.8488
upperneck 0.0285913 -2.95541 2.11371
head 0.887688 -1.42033 0.130819
lclavicle 8.81433e-15 4.31352e-15 2.62061e-30
lhumerus -53.3776 -6.59176 95.452
lradius 57.2971 -0 0
lwrist 16.2016 0 0
lhand -8.42574 3.73554 0.184813
lfingers 7.12502 -0 0
lthumb 17.4946 32.9072 0.165466
rclavicle 8.81433e-15 4.31352e-15 2.62061e-30
rhumerus -39.6878 44.4092 -118.12
rradius 67.5659 -0 0
rwrist 0.122629 0 0
rhand -8.51362 -20.5878 -0.246638
rfingers 7.12502 -0 0
rthumb 17.4099 -49.7849 -0.224693
816
root 2.25955 16.5331 23.932 5.586 -7.34963 -6.01423
lfemur -36.3914 3.90798 0.659975
ltibia 23.9152 -0 0
lfoot -10.7997 19.5322 -0.0197692
ltoes 20.0502 -0 0
rfemur 5.74836 2.89474 24.1353
rtibia 15.849 -0 0
rfoot -25.4559 -18.8674 -1.27054
rtoes -31.9589 0 0
lowerback -0.0260379 6.41455 4.85975
upperback -0.32169 8.56155 -0.734727
thorax 0.536776 4.29838 -3.29885
lowerneck -5.19079 -1.96141 2.95264
upperneck 0.11517 -2.79945 1.9834
head 0.91294 -1.34546 0.0734411
lclavicle 7.72535e-15 3.69104e-15 2.23688e-30
lhumerus -53.3869 -6.45153 94.7279
lradius 56.4572 -0 0
lwrist 16.4751 0 0
lhand -8.05101 4.04201 0.157576
lfingers 7.12502 -0 0
lthumb 17.8559 33.1906 0.141161
rclavicle 7.72535e-15 3.69104e-15 2.23688e-30
rhumerus -38.3321 44.5478 -116.732
rradius 67.3868 -0 0
rwrist -0.309372 0 0
rhand -8.13312 -20.7933 -0.216616
rfingers 7.12502 -0 0
rthumb 17.7767 -49.9659 -0.197872
817
root 2.25539 16.5378 23.902 5.43353 -7.46407 -6.3168
lfemur -36.1712 3.10521 1.30075
ltibia 22.5806 -0 0
lfoot -10.1745 18.8839 -0.030851
ltoes 20.0955 -0 0
rfemur 6.05707 3.65052 23.8139
rtibia 16.1058 -0 0
rfoot -24.7778 -17.7282 -1.02105
rtoes -31.172 0 0
lowerback -0.0576417 6.529 5.07541
upperback -0.329393 8.71187 -0.582462
thorax 0.56267 4.37193 -3.2581
lowerneck -5.23088 -1.83931 3.0541
upperneck 0.201246 -2.64841 1.85156
head 0.938742 -1.27324 0.0156277
lclavicle 6.54067e-15 3.00579e-15 1.82788e-30
lhumerus -53.406 -6.3155 93.9439
lradius 55.5902 -0 0
lwrist 16.7607 0 0
lhand -7.68503 4.34637 0.128716
lfingers 7.12502 -0 0
lthumb 18.2087 33.4723 0.115375
rclavicle 6.54067e-15 3.00579e-15 1.82788e-30
rhumerus -36.8335 44.6824 -115.208
rradius 67.2311 -0 0
rwrist -0.758507 0 0
rhand -7.76856 -21.0135 -0.182309
rfingers 7.12502 -0 0
rthumb 18.1282 -50.162 -0.166971
818
root 2.24625 16.541 23.8514 5.24895 -7.34278 -6.63595
lfemur -35.9405 2.26405 1.94556
ltibia 21.2176 -0 0
lfoot -9.53238 18.1878 -0.0355414
ltoes 20.133 -0 0
rfemur 6.32285 4.39516 23.4495
rtibia 16.4872 -0 0
rfoot -24.0195 -16.5361 -0.766014
rtoes -30.3038 0 0
lowerback -0.0881761 6.64739 5.29142
upperback -0.339155 8.86733 -0.427133
thorax 0.585532 4.44787 -3.21486
lowerneck -5.27475 -1.72106 3.15296
upperneck 0.286733 -2.50266 1.71825
head 0.965093 -1.20388 -0.0425787
lclavicle 5.25779e-15 2.25603e-15 1.3963e-30
lhumerus -53.4353 -6.1842 93.0984
lradius 54.6958 -0 0
lwrist 17.0585 0 0
lhand -7.32854 4.64822 0.0983718
lfingers 7.12502 -0 0
lthumb 18.5523 33.7519 0.0882306
rclavicle 5.25779e-15 2.25603e-15 1.3963e-30
rhumerus -35.1869 44.806 -113.546
rradius 67.0998 -0 0
rwrist -1.22497 0 0
rhand -7.421 -21.2487 -0.143591
rfingers 7.12502 -0 0
rthumb 18.4634 -50.3735 -0.131848
819
root 2.23184 16.5426 23.7792 5.02935 -6.97704 -6.97283
lfemur -35.6996 1.38374 2.59362
ltibia 19.8264 -0 0
lfoot -8.8733 17.4428 -0.0327475
ltoes 20.1626 -0 0
rfemur 6.54312 5.12727 23.0395
rtibia 16.9976 -0 0
rfoot -23.1779 -15.2897 -0.508485
rtoes -29.3519 0 0
lowerback -0.117562 6.76974 5.50755
upperback -0.35103 9.028 -0.268789
thorax 0.605224 4.52621 -3.16907
lowerneck -5.32253 -1.60691 3.24902
upperneck 0.371549 -2.36256 1.58352
head 0.991996 -1.13754 -0.101135
lclavicle 3.87424e-15 1.44004e-15 9.45273e-31
lhumerus -53.4754 -6.05819 92.1898
lradius 53.7741 -0 0
lwrist 17.3686 0 0
lhand -6.98229 4.94717 0.0666948
lfingers 7.12502 -0 0
lthumb 18.8861 34.029 0.0598577
rclavicle 3.87424e-15 1.44004e-15 9.45273e-31
rhumerus -33.3879 44.9104 -111.739
rradius 66.9942 -0 0
rwrist -1.70894 0 0
rhand -7.0915 -21.4991 -0.100355
rfingers 7.12502 -0 0
rthumb 18.7811 -50.6007 -0.0923792
820
root 2.21185 16.5425 23.6846 4.77156 -6.35816 -7.32911
lfemur -35.4486 0.463481 3.2441
ltibia 18.4075 -0 0
lfoot -8.19743 16.6478 -0.0213093
ltoes 20.1838 -0 0
rfemur 6.71527 5.84532 22.5814
rtibia 17.6414 -0 0
rfoot -22.2504 -13.9874 -0.251877
rtoes -28.3142 0 0
lowerback -0.14572 6.89608 5.72362
upperback -0.36507 9.1939 -0.107478
thorax 0.621612 4.60697 -3.1207
lowerneck -5.37436 -1.49712 3.34208
upperneck 0.455614 -2.22848 1.44742
head 1.01945 -1.07442 -0.16
lclavicle 2.38752e-15 5.56082e-16 4.78451e-31
lhumerus -53.5264 -5.93812 91.2166
lradius 52.8249 -0 0
lwrist 17.6913 0 0
lhand -6.64699 5.2428 0.0338467
lfingers 7.12502 -0 0
lthumb 19.2094 34.3034 0.0303974
rclavicle 2.38752e-15 5.56082e-16 4.78451e-31
rhumerus -31.433 44.9863 -109.785
rradius 66.9151 -0 0
rwrist -2.21062 0 0
rhand -6.78112 -21.7652 -0.052513
rfingers 7.12502 -0 0
rthumb 19.0805 -50.8441 -0.0484588
821
root 2.186 16.5406 23.5666 4.4721 -5.47753 352.293
lfemur -35.1876 -0.497503 3.8962
ltibia 16.9611 0 0
lfoot -7.50492 15.8019 0
ltoes 20.1964 0 0
rfemur 6.83668 6.54766 22.0726
rtibia 18.4231 0 0
rfoot -21.2343 -12.628 0
rtoes -27.1883 0 0
lowerback -0.172572 7.02642 5.93941
upperback -0.381328 9.3651 0.0567512
thorax 0.634559 4.69018 -3.06969
lowerneck -5.43036 -1.39198 3.43192
upperneck 0.538849 -2.10077 1.31002
head 1.04746 -1.01469 -0.219131
lclavicle 7.95139e-16 -3.97569e-16 0
lhumerus -53.5888 -5.82466 90.1773
lradius 51.848 0 0
lwrist 18.0267 0 0
lhand -6.3234 5.53472 0
lfingers 7.12502 0 0
lthumb 19.5214 34.5747 0
rclavicle 7.95139e-16 -3.97569e-16 0
rhumerus -29.3198 45.0234 -107.682
rradius 66.8638 0 0
rwrist -2.73019 0 0
rhand -6.49092 -22.0473 0
rfingers 7.12502 0 0
rthumb 19.3604 -771.104 0
822
root 2.21709 16.5434 23.7025 4.26359 -6.21779 -7.5827
lfemur -34.8919 -0.648862 3.80578
ltibia 16.774 -0 0
lfoot -7.29002 15.1986 -0.00497741
ltoes 20.286 -0 0
rfemur 6.25058 6.97283 21.894
rtibia 18.5509 -0 0
rfoot -20.8934 -12.2289 0.0466464
rtoes -26.8966 0 0
lowerback -0.0287425 6.93385 5.90285
upperback -0.315808 9.25208 0.096215
thorax 0.618262 4.63226 -3.0042
lowerneck -5.44203 -1.35293 3.46826
upperneck 0.670665 -2.05444 1.29173
head 1.09036 -0.990391 -0.232262
lclavicle 9.82597e-16 -6.4127e-16 4.06591e-32
lhumerus -53.368 -5.96725 90.0339
lradius 51.664 -0 0
lwrist 18.1501 0 0
lhand -5.9698 5.64813 -0.0190261
lfingers 7.12502 -0 0
lthumb 19.8612 34.6532 -0.0196207
rclavicle 9.82597e-16 -6.4127e-16 4.06591e-32
rhumerus -29.2597 44.3408 -106.84
rradius 66.5119 -0 0
rwrist -2.78743 0 0
rhand -6.36554 -22.1678 0.00951584
rfingers 7.12502 -0 0
rthumb 19.4815 -51.2203 0.00792619
823
root 2.25239 16.546 23.85 4.02787 -6.92893 -7.44261
lfemur -34.569 -0.797088 3.68614
ltibia 16.6082 -0 0
lfoot -7.07237 14.5468 -0.00872717
ltoes 20.379 -0 0
rfemur 5.58461 7.39946 21.6874
rtibia 18.7283 -0 0
rfoot -20.5181 -11.8165 0.0942377
rtoes -26.5765 0 0
lowerback 0.12936 6.83035 5.85496
upperback -0.245238 9.12533 0.134613
thorax 0.59829 4.56741 -2.93339
lowerneck -5.45482 -1.31635 3.50318
upperneck 0.811101 -2.01159 1.27602
head 1.13641 -0.967652 -0.244604
lclavicle 1.19274e-15 -9.06371e-16 8.40114e-32
lhumerus -53.1292 -6.12874 89.8821
lradius 51.4848 -0 0
lwrist 18.2787 0 0
lhand -5.60149 5.75961 -0.0388698
lfingers 7.12502 -0 0
lthumb 20.2151 34.7276 -0.0400478
rclavicle 1.19274e-15 -9.06371e-16 8.40114e-32
rhumerus -29.2118 43.6 -105.939
rradius 66.1436 -0 0
rwrist -2.83998 0 0
rhand -6.24873 -22.2969 0.0197985
rfingers 7.12502 -0 0
rthumb 19.5943 -51.3458 0.0166251
